Coordinates
version=1
nRows=41
nColumns=38
inDegrees=no

Units are S.I. units (second, meters, Newtons, ...)
If the header above contains a line with 'inDegrees', this indicates whether rotational values are in degrees (yes) or radians (no).

endheader
time	pelvis_tilt	pelvis_list	pelvis_rotation	pelvis_tx	pelvis_ty	pelvis_tz	hip_flexion_r	hip_adduction_r	hip_rotation_r	knee_angle_r	ankle_angle_r	subtalar_angle_r	mtp_angle_r	hip_flexion_l	hip_adduction_l	hip_rotation_l	knee_angle_l	ankle_angle_l	subtalar_angle_l	mtp_angle_l	lumbar_extension	lumbar_bending	lumbar_rotation	arm_flex_r	arm_add_r	arm_rot_r	elbow_flex_r	pro_sup_r	wrist_flex_r	wrist_dev_r	arm_flex_l	arm_add_l	arm_rot_l	elbow_flex_l	pro_sup_l	wrist_flex_l	wrist_dev_l
0	-0.0524524	1.32111	-1.48946	0.849119	1.75739	0.957818	-0.336404	0.0880435	-0.123402	0	-0.333898	0	0	0.132803	-0.218022	-0.310962	1.16936	-0.098023	0	0	-0.407341	0.0135438	-0.141326	0.252964	-0.481518	1.37436	0.715573	0.201336	0	0	-0.325272	-0.41071	0.0602807	1.02379	1.49996	0	0
0.01	-0.0547643	1.32209	-1.49186	0.849061	1.74737	0.957583	-0.352308	0.0892622	-0.116251	0	-0.331737	0	0	0.146062	-0.214363	-0.319402	1.12401	-0.101233	0	0	-0.407263	0.0115759	-0.13628	0.255508	-0.480586	1.37999	0.71345	0.193259	0	0	-0.328496	-0.402256	0.0535213	1.01728	1.50116	0	0
0.02	-0.0474326	1.32221	-1.50208	0.84932	1.73725	0.957022	-0.36644	0.0841064	-0.113705	0	-0.33014	0	0	0.155249	-0.206028	-0.32685	1.07154	-0.106057	0	0	-0.408686	0.00706765	-0.13319	0.25692	-0.479805	1.3829	0.71223	0.187887	0	0	-0.333123	-0.396216	0.0467524	1.01214	1.50412	0	0
0.03	-0.053279	1.31414	-1.49512	0.850161	1.72693	0.957283	-0.387305	0.0880578	-0.137007	0	-0.319406	0	0	0.153046	-0.201417	-0.335327	1.01259	-0.111595	0	0	-0.41842	0.00866088	-0.132463	0.258401	-0.480532	1.38387	0.712007	0.184958	0	0	-0.336188	-0.389263	0.0408423	1.00674	1.50521	0	0
0.04	-0.0494471	1.32336	-1.50294	0.849722	1.7167	0.955246	-0.394999	0.0838055	-0.116401	0	-0.319273	0	0	0.169168	-0.193921	-0.345931	0.955816	-0.119113	0	0	-0.410091	0.00282177	-0.127897	0.257093	-0.477833	1.38407	0.709201	0.181952	0	0	-0.341833	-0.383541	0.0319258	1.00267	1.50755	0	0
0.05	-0.0535795	1.32685	-1.49941	0.849791	1.70671	0.953987	-0.406656	0.0833431	-0.112718	0	-0.313708	0	0	0.177372	-0.187088	-0.355261	0.89436	-0.124918	0	0	-0.408319	0.00118992	-0.125575	0.257071	-0.474608	1.38418	0.704332	0.180735	0	0	-0.344391	-0.378265	0.0261669	0.996934	1.50942	0	0
0.06	-0.055448	1.33121	-1.49832	0.850099	1.69625	0.952464	-0.41557	0.0826533	-0.114309	0	-0.306764	0	0	0.182897	-0.178967	-0.369234	0.830455	-0.128849	0	0	-0.404713	-0.000737284	-0.123393	0.255773	-0.472064	1.38371	0.699512	0.179895	0	0	-0.347954	-0.37184	0.0199409	0.990948	1.51297	0	0
0.07	-0.0580355	1.33558	-1.49524	0.850398	1.68586	0.950779	-0.424222	0.0830792	-0.117671	0	-0.2927	0	0	0.186748	-0.170004	-0.381649	0.763882	-0.132042	0	0	-0.401368	-0.00241371	-0.122767	0.254873	-0.468297	1.38337	0.693505	0.179187	0	0	-0.352201	-0.365236	0.0113893	0.986088	1.5187	0	0
0.08	-0.0606206	1.34095	-1.491	0.850937	1.67574	0.948984	-0.429134	0.0831947	-0.116901	0	-0.288384	0	0	0.190199	-0.159004	-0.388953	0.693094	-0.133706	0	0	-0.3978	-0.00338923	-0.122602	0.254287	-0.465338	1.38277	0.688481	0.178153	0	0	-0.354606	-0.359375	0.00531363	0.980775	1.52206	0	0
0.09	-0.0685475	1.34907	-1.48062	0.851487	1.66525	0.946811	-0.432411	0.0863794	-0.12086	0	-0.274795	0	0	0.194808	-0.148507	-0.392671	0.618437	-0.140188	0	0	-0.390382	-0.00354898	-0.123854	0.252994	-0.460622	1.38329	0.680862	0.177089	0	0	-0.359279	-0.351895	-0.00456383	0.976104	1.52762	0	0
0.1	-0.0763544	1.35665	-1.46969	0.852501	1.65474	0.944691	-0.435414	0.0877262	-0.120909	0	-0.271267	0	0	0.196949	-0.136383	-0.392574	0.540227	-0.148397	0	0	-0.383794	-0.002916	-0.125124	0.251567	-0.457655	1.38332	0.674696	0.175867	0	0	-0.362488	-0.345157	-0.011079	0.969441	1.52939	0	0
0.11	-0.0891677	1.36437	-1.452	0.853714	1.64421	0.942461	-0.438114	0.0913303	-0.123899	0	-0.264668	0	0	0.198988	-0.124981	-0.386059	0.464666	-0.159434	0	0	-0.3768	-0.0007877	-0.128172	0.250407	-0.454561	1.38401	0.668375	0.174589	0	0	-0.365752	-0.338476	-0.0172735	0.962936	1.53128	0	0
0.12	-0.104834	1.37155	-1.43131	0.855085	1.63356	0.940238	-0.440581	0.09499	-0.126916	0	-0.258635	0	0	0.199681	-0.114525	-0.377695	0.395645	-0.165768	0	0	-0.370065	0.00210863	-0.131204	0.249039	-0.45279	1.38454	0.663656	0.173364	0	0	-0.368611	-0.332169	-0.0214985	0.956522	1.53299	0	0
0.13	-0.1199	1.37737	-1.41185	0.85652	1.62274	0.938141	-0.444024	0.0980092	-0.129938	0	-0.252958	0	0	0.197531	-0.104209	-0.368939	0.332993	-0.167681	0	0	-0.364342	0.00433375	-0.133761	0.2474	-0.45088	1.38521	0.658541	0.172444	0	0	-0.371963	-0.327259	-0.0237765	0.950671	1.53487	0	0
0.14	-0.132235	1.38096	-1.3954	0.85801	1.61183	0.936275	-0.449436	0.100431	-0.133356	0	-0.248819	0	0	0.191953	-0.0939278	-0.358605	0.276086	-0.166542	0	0	-0.360849	0.00587802	-0.136108	0.245535	-0.449123	1.38493	0.653852	0.171245	0	0	-0.37547	-0.32399	-0.0239085	0.945675	1.53597	0	0
0.15	-0.143068	1.38383	-1.38139	0.859383	1.60071	0.934682	-0.455294	0.102695	-0.136643	0	-0.245978	0	0	0.184024	-0.0844432	-0.344566	0.222913	-0.168564	0	0	-0.357813	0.00732434	-0.138665	0.243923	-0.446938	1.38493	0.648836	0.170306	0	0	-0.378394	-0.319442	-0.0249314	0.939792	1.53613	0	0
0.16	-0.160021	1.38349	-1.36254	0.860982	1.58958	0.933735	-0.459971	0.100617	-0.140686	0	-0.284829	0	0	0.176828	-0.0808643	-0.338654	0.192	-0.168936	0	0	-0.358805	0.0107652	-0.139509	0.243132	-0.446283	1.38455	0.644965	0.169656	0	0	-0.378998	-0.314125	-0.0242583	0.932697	1.53681	0	0
0.17	-0.161399	1.3866	-1.36123	0.861681	1.57821	0.932203	-0.462009	0.0948773	-0.141915	0	-0.321975	0	0	0.171041	-0.0751628	-0.324272	0.165208	-0.173726	0	0	-0.35485	0.00844245	-0.139738	0.240491	-0.443488	1.38395	0.640923	0.168526	0	0	-0.38224	-0.3113	-0.0251782	0.927026	1.53752	0	0
0.18	-0.160238	1.35646	-1.35307	0.863429	1.56542	0.934396	-0.523599	0.101201	-0.205519	0.000356076	-0.264091	0	0	0.130002	-0.0789799	-0.323126	0.1573	-0.184172	0	0	-0.38282	0.0158777	-0.147951	0.240171	-0.441573	1.38567	0.638178	0.167201	0	0	-0.387003	-0.309361	-0.025623	0.925139	1.53775	0	0
0.19	-0.150913	1.35322	-1.36369	0.86447	1.55359	0.933829	-0.523599	0.0948629	-0.212179	1.57358e-07	-0.266103	0	0	0.123508	-0.0767116	-0.324676	0.174232	-0.188678	0	0	-0.386501	0.0127585	-0.148655	0.238908	-0.441794	1.38577	0.638985	0.165966	0	0	-0.391842	-0.30713	-0.0263408	0.922922	1.53774	0	0
0.2	-0.149073	1.34967	-1.36811	0.865435	1.54161	0.933398	-0.523599	0.0901033	-0.211991	0.0514014	-0.23742	0	0	0.121342	-0.0794711	-0.337858	0.214808	-0.190255	0	0	-0.389635	0.0116319	-0.149176	0.238531	-0.442609	1.38771	0.640232	0.163022	0	0	-0.402573	-0.305264	-0.0283743	0.932703	1.53223	0	0
0.21	-0.141876	1.34534	-1.37732	0.866664	1.52928	0.933031	-0.523599	0.0840019	-0.213424	0.0785011	-0.219187	0	0	0.115057	-0.0797345	-0.348225	0.25185	-0.179933	0	0	-0.391152	0.00642511	-0.142622	0.232132	-0.441982	1.38898	0.636665	0.155569	0	0	-0.400325	-0.306968	-0.0205364	0.916653	1.55036	0	0
0.22	-0.13068	1.34195	-1.38991	0.868142	1.51655	0.932847	-0.523599	0.0766823	-0.214081	0.105738	-0.221302	0	0	0.104874	-0.0757358	-0.352501	0.27255	-0.177572	0	0	-0.391484	0.00151413	-0.138723	0.224707	-0.441384	1.38732	0.632722	0.153331	0	0	-0.40371	-0.307741	-0.0157964	0.913719	1.5561	0	0
0.23	-0.116458	1.33938	-1.40384	0.869859	1.50352	0.932817	-0.523599	0.0690127	-0.214781	0.135364	-0.225717	0	0	0.0932423	-0.0685649	-0.351744	0.278659	-0.186001	0	0	-0.390395	-0.00346216	-0.136579	0.215879	-0.44081	1.38411	0.628576	0.151756	0	0	-0.406841	-0.308464	-0.0112672	0.910082	1.56033	0	0
0.24	-0.0982449	1.33912	-1.41912	0.871783	1.4903	0.932925	-0.523599	0.0608634	-0.219902	0.169624	-0.235836	0	0	0.0836831	-0.0599923	-0.347734	0.276062	-0.213654	0	0	-0.386498	-0.00901896	-0.136505	0.205148	-0.438569	1.3787	0.622033	0.151299	0	0	-0.408813	-0.310039	-0.00554294	0.905157	1.56389	0	0
0.25	-0.102954	1.36348	-1.41415	0.873916	1.47618	0.931972	-0.523599	0.0501659	-0.244279	0.0605433	-0.313665	0	0	0.0984734	-0.0522604	-0.342454	0.268888	-0.228072	0	0	-0.376346	-0.0140783	-0.138743	0.196876	-0.43814	1.37581	0.617388	0.150944	0	0	-0.410809	-0.309442	-0.00388559	0.898058	1.56552	0	0
0.26	-0.0576029	1.33831	-1.44348	0.876679	1.46209	0.934005	-0.523599	0.0579282	-0.313499	6.51763e-08	-0.547965	0	0	0.0623545	-0.0456812	-0.340257	0.271777	-0.254308	0	0	-0.374759	-0.0171635	-0.147666	0.180701	-0.43387	1.37041	0.609116	0.150956	0	0	-0.416192	-0.311324	0.000540422	0.892989	1.56755	0	0
0.27	-0.0363767	1.33625	-1.46618	0.878853	1.45078	0.934718	-0.523599	0.0288513	-0.246083	0.307905	-0.293349	0	0	0.0522878	-0.0379912	-0.33426	0.270955	-0.294826	0	0	-0.3774	-0.0230745	-0.147587	0.177092	-0.4359	1.36105	0.60967	0.155245	0	0	-0.416171	-0.315098	0.00792508	0.894124	1.56366	0	0
0.28	-0.0255277	1.334	-1.47253	0.881484	1.43776	0.935633	-0.512642	0.0173851	-0.250974	0.367475	-0.309539	0	0	0.0430046	-0.0353751	-0.329977	0.282591	-0.300354	0	0	-0.375692	-0.0243413	-0.151895	0.170084	-0.439108	1.35655	0.611316	0.154911	0	0	-0.418463	-0.314832	0.00917149	0.891086	1.56634	0	0
0.29	-0.0160547	1.33212	-1.47747	0.884155	1.42489	0.936731	-0.493405	0.00519544	-0.253646	0.43258	-0.339747	0	0	0.0346366	-0.0333678	-0.325292	0.298378	-0.30048	0	0	-0.37396	-0.0248144	-0.156173	0.163432	-0.443101	1.35149	0.613875	0.154717	0	0	-0.419618	-0.314481	0.0100138	0.888308	1.56877	0	0
0.3	-0.00254476	1.32964	-1.4867	0.886724	1.41233	0.938035	-0.470496	-0.00902611	-0.254331	0.502078	-0.378131	0	0	0.024596	-0.0298529	-0.321453	0.313289	-0.29397	0	0	-0.373557	-0.0261426	-0.160857	0.158107	-0.446702	1.34719	0.616353	0.154706	0	0	-0.420258	-0.315475	0.0114241	0.887707	1.5688	0	0
0.31	0.0157877	1.32728	-1.5014	0.889061	1.40013	0.939426	-0.443644	-0.0250531	-0.25245	0.574219	-0.42912	0	0	0.0134917	-0.0249604	-0.321054	0.326017	-0.284844	0	0	-0.373715	-0.0288316	-0.165449	0.153806	-0.449611	1.3432	0.618502	0.155233	0	0	-0.420157	-0.318832	0.0150887	0.889119	1.56558	0	0
0.32	0.0395103	1.32539	-1.52256	0.891108	1.38834	0.940794	-0.413033	-0.0424823	-0.247057	0.647049	-0.483459	0	0	0.000999177	-0.0181879	-0.321657	0.334329	-0.276378	0	0	-0.374055	-0.0333659	-0.169898	0.150667	-0.451808	1.33955	0.620402	0.156383	0	0	-0.41964	-0.324187	0.0198858	0.892549	1.56059	0	0
0.33	0.0661993	1.32375	-1.54814	0.892917	1.37691	0.942024	-0.379255	-0.060659	-0.237818	0.720169	-0.527966	0	0	-0.0126887	-0.0103746	-0.3237	0.339436	-0.267997	0	0	-0.374698	-0.0391896	-0.174048	0.149161	-0.454659	1.33678	0.62409	0.1581	0	0	-0.419367	-0.329964	0.0228096	0.898485	1.55498	0	0
0.34	0.0919988	1.32219	-1.57445	0.894585	1.36583	0.94305	-0.343162	-0.0786289	-0.225225	0.793806	-0.561804	0	0	-0.0272354	-0.00267628	-0.327949	0.342679	-0.258345	0	0	-0.375639	-0.0451815	-0.177499	0.149119	-0.459265	1.33419	0.630775	0.160519	0	0	-0.419146	-0.336155	0.0251328	0.90704	1.54857	0	0
0.35	0.11314	1.32097	-1.59774	0.896056	1.35509	0.943822	-0.305008	-0.0947546	-0.20983	0.866126	-0.585173	0	0	-0.0418377	0.00358608	-0.334378	0.345307	-0.247921	0	0	-0.376585	-0.05028	-0.180029	0.150323	-0.465775	1.33115	0.640554	0.163061	0	0	-0.41865	-0.342527	0.0271029	0.917351	1.54388	0	0
0.36	0.152059	1.33438	-1.63945	0.895928	1.34368	0.942211	-0.254989	-0.0863067	-0.210411	0.877896	-0.679459	0	0	-0.0379343	0.0100449	-0.340108	0.356419	-0.226978	0	0	-0.358395	-0.0623068	-0.18144	0.144833	-0.469439	1.32365	0.651306	0.168191	0	0	-0.424472	-0.355023	0.0301629	0.933018	1.53785	0	0
0.37	0.128606	1.32502	-1.61469	0.898745	1.33385	0.9449	-0.223699	-0.113274	-0.183092	0.992357	-0.635582	0	0	-0.0639279	0.00756619	-0.341995	0.34921	-0.224931	0	0	-0.371598	-0.0524864	-0.18612	0.152017	-0.477161	1.32257	0.656301	0.174349	0	0	-0.413753	-0.355713	0.0326172	0.934959	1.53284	0	0
0.38	0.11436	1.35138	-1.60984	0.898485	1.32475	0.943944	-0.160128	-0.103332	-0.00959883	1.05309	-0.580526	0	0	-0.043195	0.00176006	-0.338762	0.358372	-0.210718	0	0	-0.345768	-0.0508947	-0.179014	0.154501	-0.470806	1.32075	0.643321	0.181657	0	0	-0.40291	-0.35998	0.0352048	0.932045	1.53	0	0
0.39	0.101725	1.35252	-1.59776	0.899495	1.31467	0.944956	-0.121665	-0.104073	-0.00755969	1.10203	-0.560374	0	0	-0.0561083	-0.0018243	-0.340566	0.35425	-0.206497	0	0	-0.345085	-0.0473455	-0.183205	0.159751	-0.472237	1.32175	0.644039	0.185261	0	0	-0.397989	-0.364677	0.0336637	0.938913	1.52815	0	0
0.4	0.0868891	1.35359	-1.58369	0.900386	1.30477	0.946176	-0.0846766	-0.104116	-0.00597977	1.14489	-0.524127	0	0	-0.0695197	-0.00570793	-0.342057	0.348122	-0.20355	0	0	-0.344803	-0.0431911	-0.186951	0.165661	-0.472939	1.32358	0.643252	0.188797	0	0	-0.390645	-0.369386	0.0329207	0.943616	1.52701	0	0
